<mxfile host="app.diagrams.net" agent="Mozilla/5.0 (Windows NT 10.0; Win64; x64) AppleWebKit/537.36 (KHTML, like Gecko) Chrome/131.0.0.0 Safari/537.36" version="25.0.3">
  <diagram name="Denmarl-lenses-Project" id="TT7T4Igitzz6EejLke91">
    <mxGraphModel dx="2693" dy="804" grid="1" gridSize="10" guides="1" tooltips="1" connect="1" arrows="1" fold="1" page="1" pageScale="1" pageWidth="850" pageHeight="1100" math="0" shadow="0">
      <root>
        <mxCell id="0" />
        <mxCell id="1" parent="0" />
        <mxCell id="U6AgGRZ9KWCwCMbpHuop-5" style="edgeStyle=orthogonalEdgeStyle;rounded=0;orthogonalLoop=1;jettySize=auto;html=1;" parent="1" source="U6AgGRZ9KWCwCMbpHuop-1" target="U6AgGRZ9KWCwCMbpHuop-4" edge="1">
          <mxGeometry relative="1" as="geometry" />
        </mxCell>
        <mxCell id="U6AgGRZ9KWCwCMbpHuop-1" value="" style="shape=image;verticalLabelPosition=bottom;labelBackgroundColor=default;verticalAlign=top;aspect=fixed;imageAspect=0;image=data:image/jpeg,/9j/4AAQSkZJRgABAQEAAAAAAAD/4QBCRXhpZgAATU0AKgAAAAgAAYdpAAQAAAABAAAAGgAAAAAAAkAAAAMAAAABAA4AAEABAAEAAAABAAAAAAAAAAAAAP/bAEMACwkJBwkJBwkJCQkLCQkJCQkJCwkLCwwLCwsMDRAMEQ4NDgwSGRIlGh0lHRkfHCkpFiU3NTYaKjI+LSkwGTshE//bAEMBBwgICwkLFQsLFSwdGR0sLCwsLCwsLCwsLCwsLCwsLCwsLCwsLCwsLCwsLCwsLCwsLCwsLCwsLCwsLCwsLCwsLP/AABEIAagB2gMBIgACEQEDEQH/xAAfAAABBQEBAQEBAQAAAAAAAAAAAQIDBAUGBwgJCgv/xAC1EAACAQMDAgQDBQUEBAAAAX0BAgMABBEFEiExQQYTUWEHInEUMoGRoQgjQrHBFVLR8CQzYnKCCQoWFxgZGiUmJygpKjQ1Njc4OTpDREVGR0hJSlNUVVZXWFlaY2RlZmdoaWpzdHV2d3h5eoOEhYaHiImKkpOUlZaXmJmaoqOkpaanqKmqsrO0tba3uLm6wsPExcbHyMnK0tPU1dbX2Nna4eLj5OXm5+jp6vHy8/T19vf4+fr/xAAfAQADAQEBAQEBAQEBAAAAAAAAAQIDBAUGBwgJCgv/xAC1EQACAQIEBAMEBwUEBAABAncAAQIDEQQFITEGEkFRB2FxEyIygQgUQpGhscEJIzNS8BVictEKFiQ04SXxFxgZGiYnKCkqNTY3ODk6Q0RFRkdISUpTVFVWV1hZWmNkZWZnaGlqc3R1dnd4eXqCg4SFhoeIiYqSk5SVlpeYmZqio6Slpqeoqaqys7S1tre4ubrCw8TFxsfIycrS09TV1tfY2dri4+Tl5ufo6ery8/T19vf4+fr/2gAMAwEAAhEDEQA/APXKKKKACiiigAooooAKKKKACiiigAooooAKKKKACiiigAooooAKKKQkAEkgAAkk9AB3NAC0VyOs/EHwro7GJp2uZhkbLTDgMOzMDXIXHxgYSkW+mI0XYyMQ35A0Aeu0V5RZfF+3aQC/05o4u5gJZvyJrvtE8S6Fr8Qk0+5VnwS0MmFnUDuUzmgDZopCyqCxICgEkk4AA7nNctqvjzwlpLGOa885wORaYlwc4xkHrQB1VFcFF8VPBkjomb5Nxxukhwo+p3VvXHi7wzb6a+qG+ie3VQQkTK0xJ/h2A5oA36K8U1H4taxLLMmnWcEVvkiN3LGUj1I6VHYfFnXoXiW9tLeeHIEjAsJMZ6igD2+isTw/4m0bxHbtNp8p3p/roZMCWP3K56Vt0AFFFFABRRRQAUUUUAFFFFABRRRQAUUUUAFFFFABRRRQAUUUUAFFFFABRRRQAUUUUAFFFFABRRRQAUUUUAFFFFABRRRQAUUUUAFFFFABRRRQAUUUUAFFFMlljhjklkdUjjUu7scBVAySaAH0V5R4k+KiwSzWugxK7RvtN3KA0TY4O1K5BviR43Zi322EZOcCIAD8M0AfQckkcaSSOwVI1Z3Y8AKoySa8Q8a/EG81KWbTtIleCwjYpJNGSJJyODgg/dqlqXxI13VNFn0y4RFnmIWS5gGzMYPK4HrXL6PpkmqXkcIyIl+aVvRR1A+tRUnGnFzlsjSlTlVmoQWrIbOwv9Qci3id+fnfnaCe7Gt+PwZqDKDJcwgnsMnH1rsra2trSJIbaMRxqABgYY+7GpSVUEsVAHXcQP518zWzarKX7vRH2WHyKhCP753f3I4O58IanBG8kUsUu0E7FzvOPSsjTb++0i/t7q3lkgmglXftJBKhhuVvY13WoeItLsUcJIJ58FRHHwQT3JrzueZ55pZnxukYsce9etl9bEVU3WWnToeHmuHwtCSWHevVbnonjL4hXGqQWlnpMzQwSQBr1kOHaQ9UBHauBtLC/v2ItoXkwfmcA4HuTUMEL3E0MKffldUX6k4r1PT7KLT7WC3jUKyoPOI4LPjkmqx2N+rRXKrtkZZl312TcnaKPPrjQNZt4mleEsi8tt5IHrWVuYArkhc5K5OM/SvVtRmEFheyuflSM5z054rzOxtnvb2CBBnzJdxH+znJqMDjJ14SnUVrGmZZfDDVIU6TbcjZ0Tw02oRC6u3aO3b/AFYX77j1Gan1Xwp9mhkuLGRnSNSzpJ9/HqMV2kcccMcUUYxHGoVR6cUS7fLm3fd2HdnpjHevGeZ13V509Ox9DHJsMqPJJa9/M858N61daDq9nfRu4RZFS5QEgSRE4KsK+m4JVmiglHSWJJR7B1DV8o3GPtNztxjz2xjpjca+odC3f2PpG4kt9jh+91+6K+sTurnwklZtGjRRRTEFFFFABRRRQAUUUUAFFFFABRRRQAUUUUAFFFFABRRRQAUUUUAFFFFABRRRQAUUUUAFFFFABRRRQAUUUUAFFFFABRRRQAUUUUAFFFFABRRRQAV5X8VvEFxbR2uh2zMhuU+0XDqSCY8kBOPWvVK+efiPefafE16m8sLUeR/u45xQBz+kaRcatOY4zsiQZkkPRRXW/wDCJaT5LLlzIEOJMnqB1xS+EYtmmPIQA0k5we5XFdD2b/db+VfLY7HVfbOMHZI+2y3LaH1eM6kbuXc8hmjaGWWI9Udl/I12fgtE+z6jJj5xKig+xHSuV1Rgb+8III8w9K3vB16I57iyYgCf94CfVRjFetjuaphG15M8LLHGljkntdr/ACO3rifGC3SXkMokcW7xhECkgbh16V29Zus6cup2MkIA86MF7cns3evncFWVGspS2Prsxw8sRh5Qhvv9x53pum3+r3sFjZIJLqckRqzBc4GTljVrXtFfQrpLGedZLtUDXKKOIWPIXNVLW6vdKvoLmFmiubSYMCOCCp5H41Nreqy6zqd7qUq7ZLkoWHuqhf6V9oj85as7M2vCGnrLLNfyKCkP7tAf755yK7f61keHYVi0myK4/fJvbHc+9a/U4+tfF46q6teTfTQ/RctoKhhoxW71fzOU8X3wjhgsUb55DumH+z2qh4PtRJeT3R62ygD/AIFxWZ4gnefVLp3zlcIM+i8VseDJ0WW+gON0wQr6/LnpXtSpOjgGo7ta/M+dhWWIzROWydl8tvxO1rmPFeqzWka2MHyvcJukfv5Z4wK6euY8W6eZ7eO9jUmSD5ZMdo/WvGwPJ7ePtNv16H0WZ+0+qz9lv+nUwPC+g3PiDVrWzjVvJDrJdyDpHED1NfTEMSwxQxL92KNIl+iAKK+dfAuvNoWuWzu4W0vCtvdk9o88HP1r6MR1dUdCCrqHQjoVYZBr7Q/OR1FFFABRRRQAUUUUAFFFFABRRRQAUUUUAFFFFABRRRQAUUUUAFFFFABRRRQAUUUUAFFFFABRRRQAUUUUAFFFFABRRRQAUUUUAFFFFABRRRQAUUUUAB9fTmvmLxXKZvEXiGUjBe+kOPTtX06ehHrxXzB4pjaLxD4gjb7y30oP50AdroMax6XZgfxorn6mtM9H/wBx/wCVZuhSJJpdkVOQqKh+orT/AKgg/Q18JXv7WV+7P07C29hC3ZHkd3/x9XX/AF1f+dNhllt5Y5YyVkjYMPqDnBrU8Q6fJY6hKdpEM5Lwt2PrWY8qyRxqUAeMbQy8bh/te9fa0pRqU01s0fnNeEqNaUXo0z0zSdSh1O0jmUjzlAWdO4b1A9K0a8t0jU5tLu0mUkxNhZk7Mh64969OhmiuIopojmOVQ6+2exr5TH4R4ed18L2/yPucrx6xdO0viW/+ZyPivSAP+JlAuAcC5UdB2BFcdXr80Uc8UsMihkkUqQemT0ryvULR7G8ubVusTkA+oPIr18qxLqQ9lLdfkeBnmDVKoq8Npb+v/BO08J3yz2TWjEebbkBB6p610leWaPfvp19BODhCQkv+4eteoo6SpHLGcxyKHQ+qmvLzPD+yq8y2ke1k2L9vQUHvHT5dDz3xTZtb6k8gB8qdQUP+13FZmm3smn3lvdJjMbYYHup4Nd94h03+0LB9i7p7fLxAdW9RXmxBBIIwQcH6ivawFWOIw/JLpoz53NKEsJivaQ2eqPXYJ4rmGKeE5jlUMp/nTpY45o5YZBmOVSjj2NcV4V1fyZP7PuHxFKcxMx+6390fWu49jXzmKw8sNV5fuPr8Fio4yipr0aPLNW06bTbyWBx8hJeIjoUPIFev/DTxX/aFr/Yt7Nm8tF/0ZpG+aaLP3Rn0rndc0pNTtHVV/wBJiBeBu5Poa8/sru80q+huoGaO5tZcgjg/KeQa+nwGKWIp6/Etz4vM8C8JV0+F7f5H1ZRWXoGr2+uaVY6jDkCeMb1J5R14YGtSvQPKCiiigAooooAKKKKACiiigAooooAKKKKACiiigAooooAKKKKACiiigAooooAKKKKACiiigAooooAKKKKACiiigAooooAKKKKACiiigAooooAK8N+KWgy2WqJq0UZNtfD984HCz56H617lVDVtK0/WLKexvohJBKD16o2Dh19xQB89eG9bSwc2dyf9GlbKt/zzc8ZrvQVYKykMrAFWHIINcF4r8Kah4ZvWjkVpLKRibW4A+VlzwrH1pdB8RyWRS0vCXtS2Fc8tFnuPavCzDL3Ubq0t+qPpspzVUkqFZ6dH2/4B2V/YWuo2729wuQfuN/EjdiDXm2p6ZdaZcNDMCVOTFIPuuvrXqSsjqrowZHAKspyCD71Wv7C21G3e3nUHIJjbuj9jmvMwWNlhpcsvhPZzLLo4yPNHSS2ffyPJ67fwdevJFc2L9IR5yEnnBOMVyV/ZT2FzLbTA7kJ2n+8vY10fgyAme9nIO0RBVP8AtZr3cw5KmFcvmj5jKvaUsbGGz1TO29PzrhfGMCR3lpMo+aeJmc+pBAruv61w3jKdHu7KIEboYmD+oJIPNeHld/rKt5n02dcv1R37r8zla77wnqP2m1ezkbM1v8yZ/wCeXYVwNdZ4Ptbj7VPcsrJEItgJBG5vTmvdzKEZYduXTY+YyepOGKioddH6Hb/1GPwPFeY6/ZLZalcxoP3bHen/AALk16dXDeMfL+12uPvbDvrxspm41+VdUfRZ7TUsNzvdM5dGZGV1OGUhlI7Ec16fot+NQ0+CbOZIwI5j6uK8uru/BqyCxu2P+rM4wPfFenm1OMqPO90zxchqyjiORbNfkdRXn/iyzW3vxOgCpcjoBgZHU16BXF+M50aWwtx9+EMzf8CxivJyuUliEl1PezqMZYRuXRqx2vwhvJXttZsnclYpIpIQT90EHIAr1WvHfhBbs1xrVzkhYhGhHYlga9ir64+CCiiigAooooAKKKKACiiigAooooAKKKKACiiigAooooAKKKKACiiigAooooAKKKKACiiigAooooAKKKKACiiigAooooAKKKKACiiigAooooAKKKKAKGq6Vp+sWU9jfRLJDKpAyMtG395T614D4u8Gah4auCyhptOkJME4Gdo/uyY6V9G15V8V9e8qC20KEqWm/e3YIyQnBTFAHB+GNZngnjsJiXtpc7M8mNv9n2ru6858NWEt5qEcmCIbf5pWHb0Fejf5/Kvk81jCNf3N+p91kc6ksN7+19PQ5Pxlao0FregfvA/ksR/dxmqnhfV7Czjltbk+WzsWWQ/d+hNX/GNyiWVvbbh5ry7yvfZjrXIWWm6nqLTJY2k1y0Kb5FhXcUXpk16WDo/WMGqdTY8jMMR9Ux7q0t7K53114j0e2jZll818HYIufm7V57eXU17cz3Mpy8rZPsOwrXtvCHi26dUi0i7AJALumEX3JNd/ovwoX7JcSavODdyxMLWOEkJE5HBkyOa7MLgqeGu46tnnY3MauMsp6JdEebaBFZy6lAl1tMZ+6G6F+wr0xY0iGxECIOiqBj9K8y1jRtV0C+e0vYmjljYmKQZCyKDw6GpYPEmtQIIxMHA7yDc351y5hgamIkpQfyO7K8ypYSDhUj80ejTzQ20bTTuscagncxwCRzgV5hq+oHUr6e45CE7Y19AOKZeanqF+xNxMzLxhATsH0Fdh4K8C32s3NvfahC8OlxMsnzghrnHICe3rV4HAfVvfk7syzPNPriVOCtFficF616foMMUGlWHl/wDLaJZH/wB41j/EPw1Lo2rSXUEQXTr3DwmNTsiYDHlmsLTfEWp6bF5KbJIuyyclfoavMMNPEU1Gn0ZnlOLpYWq5Vdmj0K6urezgluZ2CxxqT7sfRa8vv7ybUbya4fJaRtqD0XooqbU9Y1DVGU3DARr92OPhR9RXbfDzwY+p3EWs6hH/AKBbvmCNx/r3HfB7CpwGB+rpyn8T/A0zTMvrbUKfwr8T0D4e6E2i6FC00bJd3xE9wrduu0flXY0gGAABgAYAHYClr1DxAooooAKKKKACiiigAooooAKKKKACiiigAooooAKKKKACiiigAooooAKKKKACiiigAooooAKKKKACiiigAooooAKKKKACiiigAooooAKKKKACiiigAOO9fPfxLE48V3/m97e38v02beMV9CVxPjnwYPEkEdzaMsepWynZkACdccIxoA8u8N6rotjZSJcTeVOzEvlSd47dK0LjxZpMUbNDumk52qARz61x2raNq2iXAttRtzDKQSoOCGA7gis6vMnllKpUdSTep7NPOa9KkqUElYuahf3Oo3D3E5yTwo7KvYVteDvEn/CNaobp0Z7eePyrlF4JTqK5sKzEAAkswUY6EntXbeKfD9vYaNoN9CmJZIoxdEDoSuea1q4qlhZ06D059F8kea1OtzVJO76nRXnxeJBWw0togC2GldWz6HAFc/P8UPGs24Rz2sSn+7Cu7H1rX0D4Y2mqWNnqM+qt5c6hxFHGPyLE12Fr8MvBkKjzreS4YDGWkdQffCmu4wPGNV8S65rShNRmjmIPyt5Y3r7K3pWPtb0b8jX0lF4H8Gw+WU0qIbPu5LH88mrn/CMeGf8AoGwf980AfMtvPLaTwzxhDJE25RKgZSfdTXYWvxK8ZWoVVmtGhXAEXkIAB6LjpXsU3gzwjO2+TS4S2NvGRx+BrKuvhn4LmQiG1kt35+ZZHYfkxoA41fifZ6hbPZ6/oq3dvL8shjKjaDxlQe9Vo/Dvw111o10nWn0+4kPFteEsfoGbitPUPhCwWR9O1Isc/LDKgH/j2a4XVvCPijQyGu7KTywxCy2/zggfxZSgD1XSfhf4atWjnupHvWQqybXxGSOcsBXoEUMMEaRQxpHGgwiRqFVR7AV836H4z8S6E8aw3Ly2ysPMt5/mDAdsnkV7J4Z8d6H4gVIS62uoFSXt5TheP7jng0AdfRRmigAooooAKKKKACiiigAooooAKKKKACiiigAooooAKKKKACiiigAooooAKKKKACiiigAooooAKKKKACiiigAooooAKKKKACiiigAooooAKKKKACiiigAooooA8s+LthJLaaTqCji1aSJzjtIRjJrhvAuiaNreqvBqcxSOGFrjYSAkir13Ma9X+JMunjwze29zcRxzTPG9qjEb5GjYHCivD9IsNav7jy9NSbc48mWWPIRUfgh2HaoqVI04uc3ZIaTk7I66/i0XVvFWn6ZoFnFFp2nyL9oaHlZSjfNLmu48Raet9ompWiKCwh/0fjpt5yKp+F/C8Hh+J3dllvpV2yyL90L/AHV9q6TAxjtgg/Q8V+V51m6xOMjUoP3Ybebve57uGw/JTaluzzLwt8RJPD9guk3dossVs8nlSKTvGTypFdZb/Frw4wX7Tb3UZP3vLTcBUVz4e8GWC3F5exQRxyMWZpsBQxOflrgdfvvDl3jT9A0wea0gHnIuWfHaPHNfbYHPFjpqNGlK3V9EebVwvsleUke3af4t8L6kkbW+owKzgFUndY357YY9a3QQwBBBBGQRyCPavnfRfh/4r1OaNmtmsolZH8y6DJkAg5UDnNfQFlA1taWduz72ghjiZj/EVUDNfQnGWKKKKACmsiOpV1VlYEEMMgg9uadRQBwniH4baBqyvNYoLC7+Zswj93Kx5+cGvGtZ0HXPDd2Ir2J42RgYZ4s+W2OQVcd6+oKz9W0jTdZtJbO/hWSJ1IUkDdGT/Eh9aAPN/A/xDaZoNI12UbzhLa8c4Leiyn+VergggEEEEZBHQg9xXzd4t8K3nhe+CFi9nMxe0nGc4B6MR3Fd98OfGpuQmharMftCj/QZ5D99R/yzYnv6UAeqUUUUAFFFFABRRRQAUUUUAFFFFABRRRQAUUUUAFFFFABRRRQAUUUUAFFFFABRRRQAUUUUAFFFFABRRRQAUUUUAFFFFABRRRQAUUUUAFFFFABRRRQAVn6zqK6Tpl/qDI0gtoWcIoySeg4FaFNkjjlRo5EV0cYZXAKkehBoA+YdU16+1vUhfau8k0YkyIVO1Ujz91B0FdfB8QdFsbYQ6fojwMECgqyAMQOrY616hdeDfCV0wabTYic5+T5efwrxHx1o0Gi69cwW0RitZQJIEJzheAcGvOxuW0Mdb26bS6XaX4GtOtKn8J3fhDX9a177dLeRxi2ibbE0a7cN12murZlUbnZVHcsQB+tc34US30zw1bXE7rHC0X2qVzxhcda4rX9X1rxTczR6RDctp1lll8oMNx6b2I/lX50sqeZY+pDDR5KcXa/RW/Vnse39jSTm7tnc+KtBl1+wjihnEcsGZIwTlJO+Dj9K43wDqVloOuy6frFrChuHEQmnQFoJgcKFJ7Gm6F401PSBHY6xBLJArBI3lVkkhHc/MOa1fEun6X4lsG1rRJEku7UbpET5ZHQclto5yK9/LZ4nJqn1TFL903pJbJvv6+Zy1lDEL2kPi7Hs4we+f5Utec/Djxd/aluujXzkX9nH+5Z+s0K4ByT3FejV9ueYFFFFABRRRQAUUUUAZeuaLYa7p9xYXcassinynx80UmPlZTXzhqenal4c1WS2l3JcWk26CVeA+05V1NfUdeffEvwyNV03+07aPN9pyFmI4L2wyzAj1FAGz4K8Rx+IdHt5nb/TbcCC7UkZLqB8+PQ11FfOHgfxA2ga1byOcWl2Vt7oE8KhYfPj2r6NjdJEjkRgyOquhHQqRkGgB1FFFABRRRQAUUUUAFFFFABRRRQAUUUUAFFFFABRRRQAUUUUAFFFFABRRRQAUUUUAFFFFABRRRQAUUUUAFFFFABRRRQAUUUUAFFFFABRRRQAUUUUAFeQfFu2t3vfD0hkVZpEaEg8ZjL/AHj9K9fNfPXj7UL7WvEeoRLBI0elhoEVVJZIxhmZsUnsBcvr248QPonhPRd7QwrHDcSqDgkcMSR/CK9i0DQrDQdOt7C1jQbVBnfGWllIG5ia8M+Huo/2f4lsB0F4fsn/AH2a+ih3+tc2EwtPCU/Z0/V+be7LqTc3dmNrXhvQ9dgaK/tY2YKRHMo2vGT3BFeP6t4V8UeC7tr/AE15Liw5XzIwWYxnqssa17zTXRJFdHUMjgq6sMhgRggg1vOnGpFwmrpkptO6Plyz1a4tNXh1aEeW6XKzukfA27gSv0NfSdtrFhLpVpq00scFtcW6T5lYKBkZwM1xfiHwD4IiF1q9zLNY28KtNNDbbQj45KqCOprzDW9f1LxDNbWNqki6dbKtvYWUWcbE4DOB/Ee9NJQVuiE31Z6Zq/xX0S1Zo9Mt3vHUkFpAY0JHofSuYuPi3r8iuIrK2hyQVKszFQO3IqlpfgUMiS6pMyMQGWKLB49Hro4fDXhyEAGwilx3kHWvMq5rQg7LX0MJV4ozYPi9rSFPO062lUDDDeyk++QK7LRPiX4b1R4be5L2dzIcASD9zn0LmubuPCvh24DgWqwbu8Q5X6VymseC7qzRrjT3a4hXJZG/1vHoBVUczoVXyvR+Y41oy0PoeOSORFeN1dGGVZCGUj2Ip1eDeCfG97olzHp2pSPJpsjiL96SWtW6ZGa93jdJEjkQ5SRFdCO6sMg16ZsOpksccqSRyKGjkVkdT0KkYINJNPBbxSTTypFFGMu8hCqo9ya881v4p6LYtNBpkTXc6HG88QE+xBzQB5l4z0OTQtcvbfaBbzsbm2I+6InJIUH2r2D4d66dX0KGKVw13YnyJFHURLwhNePeJvFuoeJ2ga8t7aIwZ2GAHOD2JNUNJ1fX9IkmbS5p4XnULIIwfnA5GaNgPqSivnJPHnjeFw738zBTgrIDtP1rd0/4s69CY0vbW2niz8zjcJQPbnFAHuFFcjoPj7w1rhESzfZbk7V8q6IXex7RnPNddmgAooooAKKKKACiiigAooooAKKKKACiiigAooooAKKKKACiiigAooooAKKKKACiiigAooooAKKKKACiiigAooooAKKKKACiiigAooooAKy7/SdPmt9XaOzt1uby1nikmWNRK5ZCBlsZrUoPagD5YiMmkaxEWyG0+9GSOo2P1r6espxc2llcA5E9vFLn13qDmvnfx1YNp/iTVl+XbczNcqFIOA5zg4rftfijf2Oj2enWtmv2i2iWIXErBlKqMD5aAPcs0hP0/OvnK78eeNb8nfekcYxbx7AAf92ss3vim6Jb7RqkhXrsecAD/gJoA9I+Lesuiafo0bDbKPtc208/KSoU4rF8EaVFFbPqci5nkYpFkfcT1FcPfW+rRGGTUFuQ0ybomuSzMy+xY5r1HwzNHNo1kY8YjVY2x/eHrXk5tOUaNl1ZhXbUdDZ/metFFFfKHAFAJByOtFFAHnHjXSYbO5hvoF2xXZKso4/eDkmu18J/EHR7PQrO21a5Y3kDPH6nygcL+lYXj2SNdO0+I4LtO5A7qAM5rD8OeCNV8R2txeQyxwwRCTDOCd7KPujFfY5bOU8PFyPRotuCuXPG3jK68Q3n2WxkkTTIsJGiEgzs2OXA6+1GjeCTNGlxqjvGjqGWGM4kXP8AezXNaYsdrq9tHdgKIrjy3DDgMGwM5r2U8kHIIIXBHIIx2NcuZ4upRtCnpfqZ1qjjojLttB0K0UKllDJgYBmUMfrVwWenqQVs7ZSOhCCp6K+blUnJ3k2cjk2V2sNMcENYWrA9coOay7zwr4fvAcwGBudptwF5963KKqFapB3jJoFJrZnlmteGNR0VhcxOZbcHcssWQ0WDkbiO9ekfDjxlPqanRtSk3XMEYNrMx+aVRxsb3pNUe2j03UTc7RCYHBDcbvpnvXA+AUkfxZpRgyI1mZm4z+754NfUZdip4iD5911O6jNzWp9GUUUV6hsFFFFABRRRQAUUUUAFFFFABRRRQAUUUUAFFFFABRRRQAUUUUAFFFFABRRRQAUUUUAFFFFABRRRQAUUUUAFFFFABRRRQAUUUUAFee+OfHg0Pdpum7JNRkjbzJM5Fsfp610/ijVxoeiajqGMvGnlxj/ppJ8qkV8/aLpWpeK9aS2EjPNcuZ7uZzkiIEFm57+lAGZeXF/fSy3128s0krnfM4JUsecZ6V2Xw78N6J4hudQXUdzm1jSQRAldyscZyK6Px5pvhrSPDFppFlNbpcWtykpjBU3ErbSrPIBzzXMfDTUWs/EtvBnA1Bfs59DjLCgD2Ww8KeF9OwbXTIEIxyw3n/x7Na4t7deFhhA9o1H8qlHf60UAcH8SPDkmraOLqzhVrvT8yFVABaAZLAAd68r8LeIP7Jma0us/Y535z1ik6bq+kCAQQRkHgg9CPSvKvGXw1+1STaloIVZXZpLi1bCoe5aP3rKtRjWg4T2ZMoqSszRikimRZIXWWNgGDRncMH1xTq8jjuvE/h5zEwurZQxDRzKyoxHpkVrR+PtWRArWlrIR/E27J/Kvm6uU1ov3NV9xxyw8lsejdenP0qC8vLSxhknupVjjRSxBOHP+6K89uPHmsTLtjt7eE/3o92f1rOhtPFXie4jCR3V0XbarsreSmfVsYqqOUVZP947IccO38QatqF54j1SNYI2O9xDaQrkk84zj3r37wpoo0LQ7DTycyBTNOcdXk+ZhXP8Agz4f2ugGPUL8rPqm35RwY7Y+sZ9a76vpKdONOKhHZHYkkrI8V+Ingq8t7ufXNNiaW0nIe6iiGXgk4GVUc4Nc1o/jDUNNRLa7T7TBH8iBzh4gO1fRxAYEEAgjBBGQR6EVx+tfDzwrq251g+xTsxZ5bUDLE+oPFRWowrR5aiuKUVJWZxtt4w8OzqoklkilPVSh2/nV7+39A4/0tfzFZ998Ib5T/wAS6/SRc/8ALxhTj8Kxbn4X+MLWCedvsTpCjOwSYliq88DFeZLJ6LejaMXh4nUP4i8PRoXa8G0ddvJ/Ksm88caPCp+xo9y/pIpUfnXnVvbPcXUNqCqvLMsILHChidvNer6d8IYiobU9RkU8HZbKpB9iTThlFGLvJtgsPFbnn1/q+ueIp0gVZHVnHk20ALBSeBnAr17wB4MfQIXv78D+0bqMLsGCIY+uAfX1ro9G8L+H9CVfsFnEk20K05GZH+pNbderCnGnHlgrI3SSVkFFFFWMKKKKACiiigAooooAKKKKACiiigAooooAKKKKACiiigAooooAKKKKACiiigAooooAKKKKACiiigAooooAKKKKACiiigAooooA8/8AirLKvh5Y1RjHJcRl2HQEHjNeQaN4gvtCjvfsColzcoYvtBHzxoRzsPrXtfxLSJ/CmoNIcFJoDH/vbsYryTwP4eTxDrMUMxItbcefOcfe2YIT8aAGaR4Z8U+LJ3uI1kdXyXvbstsYjtuNZ1jJPoWu27uR5mnX2yQr03IxQkV9O29tbWkMcNtEkMMYwqRqFUDp0FfPHj7Tzp3ibUIwABNtuxjoRJk5oA+iYJPNhgk/56Qxyf8AfSg1JXPeDdROp+HdJuicny/IPrmL5MGuhoAKKKKAKl5pml6gAt7Z29yB08+NW/mKwJ/AXg6Z9/8AZ6JyTiMYFdVRQBzVp4H8H2pYjTIJSTkeeobH0retrOzs4/KtbeKCPOdsKhR+QqeigAooooAKKKKADAqOZFeKZCOHjkU/iMVJn/J4qleanpdihe8u4IVwfvuOn0oA+Yp1NtqsqEgmHUCcjp8sua+odPnFzZWdwP8AlrBGxx64r5n8RTWc2t6lPZSpLbvOXikQbVbvnFfQvhN3k8O6G7nLNark/iaANyiiigAooooAKKKKACiiigAooooAKKKKACiiigAooooAKKKKACiiigAooooAKKKKACiiigAooooAKKKKACiiigAooooAKKKKACiiigAooooA4P4p/wDIsvz/AMvEX48isD4PIhXW3IG8PGAe4BWuw8faZPqvhvUIYF3TxFLhAO6xnLCvK/hz4jttD1Vra9by7S+/dtIeiS8BS3tQB7/2rx74vaeqS6TqYHzTbrZj/uLnBr16KWKVEkidJI2GVeNgysPYiuM+JWnpe+Grubgtp5+0D2zheKAMj4Sah52mahp5PNnIJAPaQnpXpteD/CvUPsuvNZk8X8JX2JQFq94FABRRRQAUUVWnv9PtnWO4vLWF2xtWaVEY59AxoAs0UisrAMpBBGQQcgj1BpaACiig0AQXd3aWMEtzdTJFBEpZ3cgAAelea618WLCB3h0e1N18pAuJCUVW9lIrC+Kut3M+pxaQjuttaIGmjU4EjtyGP0rN8J/D++8RRLez3AttPJKh0w0rEeimgClqHj/xjqAdXvvLiY8RwqFP5jmsNYtc1GQAJfXEkh7iVgc+54r3jS/h14Q05I/MtBeTKQRNcZzkd8A4rqoLSztkWO3gijQdAiAfrQB4Vonwz8SX80TX8YsrM7XZ2IZ2HXAUHNe52Nnb6faWtlbriG3jWOMH0HerNFABRRRQAUUUUAFFFFABRRRQAUUUUAFFFFABRRRQAUUUUAFFFFABRRRQAUUUUAFFFFABRRRQAUUUUAFFFFABRRRQAUUUUAFFFFABRRRQAUUUUAIyqwZWAIYFWB6EHqK8c8Z/De6jmudT0KPzIJC0k1oo/eIxOf3QHavZKKAPm3TPFPi7wzILcSzqkQIFpdhti/RTW5efFHVdQ0+8sLzT7MrcxGJmTd9098E17Le6Hoeoh/tlhayl+rtGvmZ9d2M1z03w38GSyFzayqSCMI+F/LFAHh/h2/8A7O1vS7wEqI7hRx2DnbX1AjblRv7yq35jNfL2uac2jaxe2QB220+6Pd12Zyua+ivDF8dR0HR7wtuMtuoJ91yv9KANmiiigAr57+I8Gpw+Jr2S78wxzBHs3OdmwAcJ9O9fQlcv4z8MQ+JNMkiAUX1urSWch7EclD9aAOb+Gni1r+3Gh38mbu2Um0djzLCOoYnuK9Mr5Ujk1LRdQV13299ZTDIOQyuhHyn2NfRPhLxLa+JNMiuFZRdxKqXkQ4KyYGSB6UAdFRRRQB4h8WdPEGrWF6q/LeQtvYD+JCBg1v8Awl1VJrC/0uRx50EolhXuYscn866Px7oR1vQbpYlX7Va/6RCT/dT5mH4ivE/CWszaHrthdqQI5JFtrgHp5TkK2aAPpmimRSRyxxyRsGjkUOhHQqRkGn0AFFFFABRRRQAUUUUAFFFFABRRRQAUUUUAFFFFABRRRQAUUUUAFFFFABRRRQAUUUUAFFFFABRRRQAUUUUAFFFFABRRRQAUUUUAFFFFABRRRQAUUUUAFFFFABRRRQB4P8VLCS38QfbcYS9gjA46tGoU12nwp1FrrQ7m0Y/8eEwQD0D5aq3xbsHm0zTb5RxZSuHPtJgDNc78JtRaDV7rTiflvIWlx2JjGaAPb6KB0ooAKKKKAPLfiP4La8STXdLizcxqWv4VHMqDnzR7ivMvD3iDUvDmoR3lo2VyEuIW+7LHnlSPWvp5lVgVYAhgQQehB4wa8e8efD94mn1jRIi0TFpLu1QZKHqXjA/lQB6ZoOvaZ4gsYr2xkBBAE0R+/DJgZVhWtXy5ouu6x4fvPtNhK8b5CzRN92RQeVdTXtPh34j6Dq4hgvGFlfNwUf8A1JPqJDxQB3DqrqysMqylWHqpGCK+dfHegPoeuXIRNtpes1xa4HCqTyua+iY5YpVDxOkiH+KNgy/mK5H4g6H/AGxoNy0ar9pss3UbEfN5aAllH1oAz/hj4hOp6UdNuJd13p+FQHqbfgKa9Br5q8G63Joeu2NwW2wzOtvd5/55McGvpON0kRJEOUkVXQ+qsMg0AOooooAKKKKACiiigAooooAKKKKACiiigAooooAKKKKACiiigAooooAKKKKACiiigAooooAKKKKACiiigAooooAKKKKACiiigAooooAKKKKACiiigAooooAKKKKAOd8Z2Daj4b1i2QZYxCRfYoQ2a8H8Jag+l+IdKuOn78WzH2kISvpaZPMimjIyHikTHruGK+XtSt5NJ1m6hIIazvN4B6ja4YUAfUo/worN0O9OoaRpN71+0WschOe+MVpZPp+tABRRk+n60c+lABQRnPvwaOfSigDgPFPw40vWTJd6dts74gsVUAQyse715Bq3hjxDosjpeWUuxCf30SlojjvuAr6dyKjmht7hGinjSWNuqSKGU/gaAPmTTfE3iXSgqWOpXEcYIPlBsofYg119t8WNfjQRXlhZ3MZG2QuWDMp4IOOK9F1TwD4Q1PJaz+zMcZazxHz68DFcrffCGzYj+z9QkRe4ufmP/jooA8lvbiO5u7y5jjESzzNKsa9I9xztFfR/gzUTqfh3SrhslliEBJ6nywFrwHxF4fuvDmpNp1xNFM4jEqvFnBVs4yD3r2X4Wlj4Ut8knF7dgZ7AMOKAO6ooooAKKKKACiiigAooooAKKKKACiiigAooooAKKKKACiiigAooooAKKKKACiiigAooooAKKKKACiiigAoqncappNqCZ722TAyQZU3flnNV7bxB4fuiBDqFsSSVAaRV5H1NAGpRTUeOQbo3R19UYMPzFOoAKKrz3thbK7T3UEYQEtvkQEY9ic1y9/8AEXwbZb0+1tNMvRIo2YE+7DigDsKK8jvPjBjellpeRyBJLIR+O0CuZvPiZ4yuHbyLlLaM/wAKRqT/AN9EUAfQJdF+8yj6kCqN1rGjWe/7TfW8ewZbLgkflXzTea/r9+2661C4c8/ddkHP+7We00z53Sytnrudj/OgD6Nn8feCIMhtVhZgM7Y1dj/LFYtz8VvDEP8Aqop5uSPl4/mK8IooA9jm+MVngiDR5854aSVMY+gFZs3xd1NjJ5FhGgIOwMQ2D6mvLuaKAO/k+KvjFlUR/Y42ByWMIbI9MGqsvxM8cSgA3dsuDn93Aq/ng1xVFAHWS/EHxpMuxr8AZB+RADx7g1zd5eXV/cz3dy++eY7pG6bj0qvRQBrxeJPEUFpDYw380dvD/q1jYqVHoCKP+Ek8S/8AQUu/+/rVkUUAa/8AwkniX/oKXfUH/WtVz/hNfF2AP7Rk4AH5VzlFAHSDxt4vBU/2i+QcjNXP+FjeNsY+3J/37H+NcfRQB3K/FHxyoUfaLM4AHNsuTj1OauQ/FnxOrxmaG1dAPnCoASfY151RQB6vB8X7pQftGmCQ5GNjhePStKD4vaO7qJtKuYgTy3mIwH5CvFqKANrxPrP9u6xe36qVidisKnqIwTivX/A+ueFbHQtPsBqlv543PKjAqVduSDkV4NSgkHIJB9uKAPrCC9sbld0FzDIB1KupqwCD0IP0Oa+TEuruMgx3E6EcgrK4/ka27Lxl4tsABb6nKAOMPh/z3CgD6YorwrT/AIreJbfb9tihuwDzwIyR/wABFdTp/wAW9GnOL+zltfUoTKP0FAHplFYGm+MPCuq4+yahFk8Ym/dHPod9biSwyjMckbj1Rgw/SgB9FFFABRRRQAUUUUAFFFFABRRRQAUUUUAFFFFABRRRQAUUUUAFFFFABRRUc88FtFLPO6xxRKXkdzgKo7kmgCG/v7LTLWe8vJVighUszMQM+w968S8SfErW9Ule30lns7PcyI0efOnU8fNmqHjHxXf+KdRNta+Z/Z8cvlWtumczNnG9gPXtXe+CPh/a6fDDqWswLNfyAPFBKMpAOoJB/ioA82sfCPjPWjJMlpcc/MXuy0ZbPORuqxN8PPGtvG0htAQoJxHJlvwAFfRQGOB0HAAHAooA+btM8TeMPDFzHGZLlEQjfaXYYLIBxj5hmtHVPiZ4tvzi3kWwXoRbHJ/NhXsniDwxo3iG2khvYFExXEV0igTRkcjBr5w1bTptJ1G90+YgvbSFMjoR2NAEd1f397I0t3czTOeSXc/yqrmirENne3Cl4LeaVQdpaNGIz6ZFAFeilZWUsrAhlJDAjBBHY5pKACrmm6bf6rdw2VjC0txKQFUA4A/vMewqnXrXwgtrYyatdkp9oUCFQfviM4Jx7UAYx+E/i8RqwexMndDNgD8cVj6p4D8XaUu+ay81ByTaHzeP+Aivo8AYpcUAfJDo6MyOrK6khlYEMpHYg02vfvGPgHT9chlu9PjjttUQM4KALHcHqRIAOvpXhF1a3VlcTWt1E8U8LFJI3GGUigCCiiigAooooAKKKKACiiigAooooAK6LSfB3ijWYZLizsm8lV3Bpsxhx/sZHNVvDGmRavruk6fNnyZ5wJsddg5NfTcEMVvDFBCoSKFFjjUAAAKMCgD5TvLK9sJ5La8gkhmjJDLIpB+ozVevXfi/BYgaNcYC3jCRQQADIgIzu+leRUAFFFFAE9paXV9cQ2trE8s8zBI0QEkk/SuwvPhn4vs7KS8aO2kEcZkkiik3SBQMnAx1rpvhJpVuV1LVZY1adSsVs5GTGpzux9a9bIH4Hrnpg+tAHyQyspKsCGBIIIwQR2IpK6DxakD+J9cjsk+U3roiIOrk4wgFWYfAfjCa1+0rp8igruWNxiQjrwKAOXBI6Z/A4rW07xH4i0rH2HUbiEDoobcuPTDVm3Fvc2s0kFxE8U0Z2vHIMMp9xUVAHpulfFnV7cRxalaxXCZ+aYMwl/IcV6Bo/j/wpq5VEujby8ApdARjcR2YnFeCWuha/ew/aLTTLyeDBIkiiYoQO+cVQkSWJ3jlRkkQlWVwQykdiKAPrSOSKVBJE6OjdGQhlP0Ip1fMuj+LfEujPEbW+laJP+WErFoSPoa9O0D4qabeGK31iL7LO7bfOj/49x7sScigD0yioba6tLyFLi1njmhf7skTBlP4ipqACiiigAooooAKKKKACiiigAooooAKKKKACiiigArzD4qeIpLS0h0S2cCS7G689fJxkAfWvRb+/stMtZ729lWK3gQu7MfTsB6185a3qFz4q8RyTRKWN1OsFsv/AEyU4U4+lAHZ/C7wuk8jeILyPdHESlgrfdZxkMxB9O1eyVQ0jT7fTNOsLGBAiQwpkD++Rlj+dSajeR2Fje3kjBVt4JJAT3ZVJAoAxvEXjLQPDhWK7kMl0wDi3iI3hT3NZ9h8SPBt2uZbv7G3pcZ/morwfVNQuNUv72/nYmS6laQ5JO0E8KM9qpZ+lAH0RqXxF8HWdrJNb38d5MAQkNvncT2ySK8E1TULjVL+8v58eZcyM5A4AHYVSz7CigDa8M6NLrms2FgqkoziSfHaFCC1fSVrpWlWcEVvbWdukUaqqgRrk4GMk461wnwv8OLY6edZuEH2m/XNuT1SDoR+NekUAcV4t8C6RrdrNNawJb6nFGzQPCAiSN1xIAOa+f54ZbeaaCVSskTtG6nghlODX1rXhXxS0RLDVodShAWHUgcqowBIgGT+NAHnddP4H1a80vxDpZgb5LyeOzmQ/dZJGC5x6iuYrQ0ZxHqukuTtCXkDE+mHHNAH1SO9GaZE4kjicHIeNWB9cgc1518T9V1PSY/DVzYXDwyi6nOVPyttQEBhQB6R1rz34ieD49XtH1WxiA1K0QmUKMefCuSdwHcdqu+CvG9t4ji+y3IWHVIVG9O0wA5da7QgEHuOQR6+1AHyQQQSCCCCQQeoI7GkrvPiP4b/ALH1Vr62jIstQZpSQMKk7EkoK4OgC7p2l6nqtwtrp9tJcTt/DGOg9Selen6P8JMhJdZvQQyqTDbZV074LHvXS/DS0sovDNjcQohnnln86XaA5IYjbnrxXccUAcQnwx8Eqmz7PcnjG5pSW/PFc7r3wnthC82gzusqKzGC5YuZMc7Ub1r1nP1o60AfJdxBPazTW88bRzQu0ciMMFWU4IqKvU/izo0MFzYaxCgBuyYLjaMDKDIY47mvLKACiirVjYX2o3EVrZwSTTSMFVUBIyfU9KAOx+GEBl8SI4Td5EXmE4+72zXvv+NcT4E8Gt4agmurtw+o3karKF6QoDnYDXbMQoJPQAn8qAPCfipqP2rXorPPGnw7Mehkw1ee1v8Ai+7+2+I9auMg758DHTCgLWBQAUD/ABoxXX+F/Aus+IXSZla104Md9xIvLY7Ip5oA9P8AhdbiPw1FNtIM80vJ6MFYjiuw1Kb7NYajPnHk2k8gPuqE0abp9ppdla2NomyC3QKg9T3P41heO7xrPwzqkinBcCHrjh8igDyz4e2lrrniue5vU3mJJb9FPQyhxjP517126+n4V4V8JWVfEdyGOC+nyqvudynFe7DoKAPEPizpaW2q2eooAPt8exgowC0Yxk1h+BfDB8RaqBOjf2fZkSXTDueqp+Ndp8YQTb+GwByZ7kD6lVrqvAOirpHh+z3xbLu7HnXR7kknbn8KAOngt7e2hSG3iSKGMbUSNQqgDjoK8T+LNtaQazYPDFHG8tpmXy1ChjuPzEDvXuJIAJJAAGST2FfOHjrV31jxDqEmQYrRjaQ46FIyRmgDQ0bwFdXVgmpagxjSb/UWinbO6npISex7VR1/wjNpdsb61nW4t42AvIRnzbEtwol+vavSIb7T10y6164eS70ubR9N05ILbJm+0QkBgqryMdzWR4i8y3svF+qT3EbWOsW2nJpUZAR5dqgFXj65WgDz/Q/E+vaBMkljct5Y6wSktCQf9knFe1+FfHuj+IVS3lItdRwAYZGGJTjlozXzxT45JInWSN2R1OVZCVYH2IoA+tqK8r8CfEL7U1to+tuBOQI7S7Y4WTHAjk9/evTvtVn/AM/EH/f1P8aAJqKiFxanOJ4TjriRD/WnrJG2MOhz/dYGgB1FFFABRRRQAUUUUAFFFFABQSACScAdSaKxPFWo/wBm6DqtyPv/AGeSKM+jupANAHj/AMRvFMur6jJplvIRp9hIyMo6SzrkFj7elUfh3Ym88T6a5GUtGM7jHHQgZrkXd5GZ3Ys7ksxPUknqa9N+EMKPqutSnO6G0iK+h3ORQB7V61wPxS1D7L4eNsjlZrueMcdfLB+YV33b614x8XroPf6NaK3EVvK0gB/iLDGaAPLTRRVy00vVb8M1nY3VwqnBMETuAfwFAFOrulWj32o6faKufOuIlYf7G4bqW70rV7FQ95YXduhIAaeJ0XJ9yK6D4eQfaPFWlJhTtWaUhumEXNAH0Ja28Fpb29tCgWKCNY41HYAVyvi7xta+GZ9NthEJ57iRWnQnHlWxOC+R3rsCQAW7DJP0FfM/jDUJ9S8QaxNK7MI7mSGEH+GJGIAoA+lLeeO5gt7iM5jniSVD/suARXEfFCwjufDkt0Rl7GSNl+jsFJrR8A3c154Y0ySViSm6EE/3UwAKk8dAHwtrYIz+7X+YoA+bTU9o6x3VpI33UmjY/QMKgpVJUhh1Uhh+BoA+rdNdZLDTnXo9rCw+hUV5x8X4t2naFLn/AFVzNx67lArv9BkMujaHIRgvYWzY9MotcL8Xf+QTpX/Xy/8A6CKAPIdL1G70q/tL+1kZJreRXyvdM/Mp+tfTejanDrGm2GpQ4CXcKybc52HoQa+Vq9q+EmptNp+o6dI2TbzK0A/6Zkc0AdL480qPVfDmoqf9ZZo15F7sgJxXzj0r6vvohcWd7CcYlgkQ56cqa+WL6MRXl9GOkdzMgx7MRQB7B8LNfszpk+kXE0MUlm7Sxea6pvWRiTtye1b/AIg+IHhzRBLCkou70LlIofmjz6M68V4doOhazrt4ltpsbbwf3k3zLHCp7uwr1/SPhb4fs1STUJJLycqplR8eUG7he9AHC33xQ8WXMzyWrx2kRGFiQbwPxYV6/wCEtVudY0OwvbkqZnXbIy9GI700eDPBYGP7CsDxjlDn+dbFpZ2VjAltZwRwQJ92OIYUfQUAcf8AE23jl8M3MrfegdWXjuSBXz//APWr6D+JUiJ4XvUY/NIyBfcg5rzz4d+EY9buW1K/jJsLN12ow4nk6/kKAKfhXwBq+vslxcBrPTs8yuMSP3wiNXtmieHNE0CAQ6fbIjEL5sxGZJGA+8Sa1kRI0REUKiAKiqMBQOAABXOeIPGfh7w8Ql3MZLg5HkW+GkU/7YzxQB0tRXBxDcH0hlP5LWP4X8QJ4k006ikJiX7TLAFPXCY5rR1NmXTtRZThhbTYI6j5TQB8tXshlu7yUjBknlbHXHzGnWNhfalcw2lnC808rAKiAn8W9qjMby3BjQZeScxoPVmbAFfQfgjwlaeHtPimljDapcxhrmVgN0ef+Wae1AGL4W+GVhYCK71sLdXeFZbf/llCwOc5HU16QiRxqqIqoijCqoCgD6CmzTQW0Ms88ixwxKXkdzhVUdSSa811D4q2QvIrTSbUzgzLC0txlVOW2kpg9PSgD06uA+K0uzwz5WD+9vbc59NpJrvInLxxOQAXjRyB2LDNeafFySQaZp8YPyNMGYepBoA4v4azLD4nt8jPmQtGPYnFfQXrXzT4LnaDxNopDbRJcpET67u1fSw7/WgDzn4h2LapqfgXTlz/AKRfTZI7KoVjXokaCNI0HREVB/wEYqheaXDd32kXz/6zTnleP6yLtNaP9aAOb8aayui6BqFz/wAtJka1hwcEPICoYfSvmx2d2Z3JLMSzMepJ5ya9M+LGsfadRs9KgkzHaxlrhB/z2J4GKi0P4fWdxaWl5qNxKGnRZlhjAxg84Y15+OzGhgIKdd2vsa0qMqrtE4rSta1zSXJ026kjLdUUCRT77GBH6VNdHxTrkyy3Ud7cSH7paNhGM+gAC17DaeHPDtkqiHToNw6yMMsfrmtVdqKEQKqjooUYFfJV+MEtKNK/q/8AI9COXP7TPEofBnimfGyzAz/fcL/OryfDvxWxPmR26DtiUNn8q9gznvRgV5c+LMa/hUV8n/mbrL6fdnkY+HXiYEENACOhD4P4VJ/wr/xV/wA9k/7/ABr1jij5ay/1pzDy+7/glfUKR5L/AMIP45gLi3kXaw+Yi5K5/Cj7F8S9NA2TXAEakDZJvwPyr1rAoz71rDizGr4lF/Jr9SXl9Po2eUReM/iTp7KLiS6kRQBiaDjA/wBoLW7Z/F69QpHf6XGQMB5Edg/1KkV3LpHKpSRUdP7rKMVj3nhjw1eK3m6fAkjf8tUGHr1aHGEXpXp29Hf8zCWXP7LNPSviF4R1Ro4lumgnYDctwuxAfZzxXVxTQTKHhkjkQ9GjYMp/FeK8U1L4bIRu0m7JfJJS5IVQPQEVg22p+N/B06pvuEt4nx5cm5rWX6GvqMHm2ExulGevZ6P7jhqUKlP4kfRlFcF4W+I2l62Y7S/CWd+3TJxBJ2AVmPWu9yDgjoeRXqGAUUUUAFcf8RYJZ/DF+sbbSjpI3uq5yK7CqeqWS6hp+oWTAH7TbyxDPIDMpANAHyl6V638Hgu/XWwN2yIE98Z6V5fqFlPp17eWM4IltZnhbIxnacZr0v4PSN9q1+H+EW8MgPuXxQB7H2H4V8+fEyd5fE91GekKKq/QjNfQXYfhXz78S4Xj8T3jt0lVGX6AYoAqeBvDkPiPWBb3DEWttH9omx1fBHyfjX0JZWFhp8KwWVtFbxAABYlC5wMZOB1rwD4f+IbPw/rJkvWK2d1EYJHxny2JGHPtX0JbXFvdQRXFvIskMqho3U5DA96AI72xsr+B7a8gjnhcFSsqhsZ4yM14vpWnReGfiNFZI58lGfymbuky52/0r292VFZ2OFQFmJ7Ack189eLNctrjxg+pWE2+C2ntwkq5Aby8b8fqKAPob+VeLeKvhxrrapc3elqLi3vZ2lKj70LOckH2r17Tb6DUrGyvoDmK6hSVPoRVygDH8N6QNE0ew0/OXjQPKe3mMAWxWH8SbyO28L6hEXxLdNFHEO5+YE12leI/FbWo7vUbXSYTlNPBeYqchnkA4OPSgDzQ0o6Gko9aAPp/wvKs3h/QXUEAWECYPqqgZrkvixAZNEspAQPJuCxHrkAV1Hg//kW9D/69Y/5Vz3xT/wCRfT/rsP6UAeDeles/CC2lMmsXXHlRlYj67mGa8nAJIA6ngfWvof4eaMuleHrVmVln1DFzOG6huQBQB1V06xW107DISGRiB6YNfMD20+p61Pa2qFpru+lSJfdnNfQ/i+/i0/w9rMzybHe2kih9TIwwAK8n+Fdgl74guLqUbmsYRcKTzh2bbmgD1zw14fsfD2mW9lboPMKh7qUgb5JTydx9B2rb6UhZVDMTgAFiT2A5zXj/AIp+J9+l3PZaD5ccUDtG9zIofzSOCUB6UAewEgcnAHqSBSgggEHIPSvmCfxH4k1CeAz6jck+apVY5GQbiR1ANfSOlNI2maW0hzI1pCXJ/vFRmgDg/i1ctHpWlWy9bu6dD7BVBrq/CGnppvh/SLZRgiISMe7F/mya83+LV7v1LSrPdxbhZdvpv716toksUuk6W8bhlNtEAR0yF5oAXWbxrDS9TvFzugtZXTHXeFODXy9d3d1e3E93cyNJPO7SSOxJJJNfVN7bJeWl5auQFuYJYCSM43qVzXzHrmjXmh6jd2F1GymN28lmHEseeGBoA9z+HEDQeF7FTty8skny/wC1g810mq/8g3U/+vab/wBBrO8IRRxeHdFCDAa2jc/UjmtHVf8AkG6n/wBe03/oNAHz74IsY9Q8V2EEi7kWWacg9jGd2a+j/U188/D25itfF9o8n3XF1COccuMCvoYelAHmHxa1C7h0+wsYjIkVxMWnZSQsgAPyHFeV+HoDc63pEOA2+5QYPTg5r3Tx/wCHn17RJBACbuxLXMCjrIQMFK8b8GwH/hK9Chm3RMLshw4wVYBuMGgD6RRdqIv91FX8hivMPi7/AMg/TP8Arp/WvUfWvL/i6D/Z2mnBwJeT260AeV+H5DFrmhyAAlL+3YA+ocV9RqchT/eAP5ivk+zn+zXdpcc/uJo5Dj/ZINfU2nTi5sNOuB0mtYZB3+8oNAFuobmYW9vcznGIYZZeenyKWqauU8f6g+neGdRlRsSStHAmDgkSHBoA8WtvtHibxUbhlLfabz7RKOuI1YZr2tUSMKiDCIAqD0AFeY/DWx3Xd7qJH+pQwA9gXANen9sV+W8VYp1cYqS2gvxep7mAp8tPm7lHVdVsNHtHu7x9qDIjQfelb+6ted3nxK1Qyt9gtoY4c/L5673/ABwaq/EO/ln1gWQfNtbRIyL2EjA5NbPhDwfpk9hDqWpRtLLOW8qPPyoo6Ej3rrwmAwOAwMcZjo8zlsvXbT8zOpVq1qjp09LFCz+JWqiQfb7aGSLIyIF2Nj8TXd6V4k0PV0zbXCrIITPLE/34UXqX+lZmreCtBvLWb7PA0V1HExtyhwpYchSB61yd5pM/hfww8kuE1XUbjyJCv3o7YjlM+9Zzo5VmUUsMnCo2kl69bdkNSr0H7+qNbWfiJFbyyQaTCJTGxUzScxuR3UVjR/ErxEGHmw2jJ3CxlTj65qh4M0C31zUJRdE/ZbVBK6jgyHP3a9EvvBvhu7tpIktzC4RjFIpwVIHGcV24lZNltRYWpS5n1e+/9dDOP1isvaJ2F8PeLNP15WhX9zfqv+pcj94cdUrmtV8d6/pmoXdk9tb/ALmTapK8ketcXaNd6RrVvsYpPbXiRkjuu8A/mKu+MpPN1++kAID+WcHt8orqo5FhKeN5eVSpzjdX6NNfhqRLE1HT3s0z0zwnrt7r9nc3N0kSNFN5SrHxkYzk0ni7X73w/a2E9qkTtcTNG4kGflAzxXnvgjWW0zVooZGP2a9/cuCflRj0cik8ba0NU1WWKFybS0PlRgHgyDhmFcP9gr+1uTkXsrc3lba33mn1r/Z731N/SvHXiDVL+0sYrW3LTvjhedo5Jr0K5tbW9iMN3DHNGVwVkUEAnrivG/A2f+Em0n/tr/6Aa9r9fqf515fEeHpYPFQhh48ul9O93/kb4OUqkG5u55P4p8GS6Xu1LS972itvkQZ8yA9d4x2Fdf8ADnxtJfbND1SUG4RALOZzzKo42MT3rppI45keKRQ0cqlJFPQqRyK8QvFbw/4m8yFtq2t6JoiP4U3dK+m4bzepjIuhXd5R2fdeZx4zDqm+aOzPpmiobSXz7W0nznzoIpfrvUNU1fYHnBRRRQB5j8TPCQvLeXX7JVFxaRZvE4UPCuSX+orm/hNciLW76ItgXNsqY9SrE17Jq9mdQ0zUrL/n5tpIh9WFfPfhe8XQfFdm07lIYLyS2uP90EpzQB9JV5H8W9Ilb+zdYiT93Gpt7kgfxMcqTXrSMrqrKcq6h1PswyKrajp9nqdnc2V3GHgnRlYEdCRgMPcUAfKXrX0d4Cs7qz8M6alw7M0o89Nx5Eb4IFcKfhNqEWrwGK4hl0hZkd2lbbOYwcldoFewQQx28MMEQxHDGsUY9FUYFAGZ4kulstE1e4L7BHbuN3puGK+X3bc7t/eZm/M5r6B+Jd5Hb+GLyEth7xkjX3wwJFfPhoA9O+HPjSHTiuiapIVtpnH2OZjxC548s+xr2lHR1DIyup6FCGH5ivkitm08T+KLGLybXVruKPbs2q2Rt9ORQB794q8S2Xh3TLm5aSNrtlKWkG4bnkPqBzgV83XNxNdTz3MzFpZ5HkckknLHOOafeX19fyme8uJZ5SAN8rZOBVagAo9aK1/Duh3fiDU7fTrc7d+Hmf8A55wgjc1AH0H4P/5FvQ/+vWP+VZfxKUHwtfkjJVo8HHT5q6fTLCHTLCysIWZo7WFIlZvvNtHU1HrOlWutaddabdMyw3AUMU+8NpB4oA8B8E+G5/EGr24MbfYbVllupcfKCvzBR9a+jFVUVVUABQFUDgADjiqOlaPpei2qWmn26QxKBuKj5pGA+8xqt4j1+x8PabcX1y43hWW2iyN0spB2gD09aAPOPizrqO1poUJB2EXVwyno3ICGmfB7yvtWvH/lr9niz/ubuK801G/udTvbu+uTma5laV+SQuT0Ge1dX8N9Zj0rxBHFKyrDqSrauzHCqQdwJJoA96vUlksr2OHiV7aVY/qVIxXyxe2t3aXE8F1FJFKkj7lkUrnnqM19Xggjjp2+nrWTq3hvw9rWDqNhDNIqlUlIw659CKAPnDQbb7ZrOj22MiW9gVsdl3DJr6ijjSKOOJBhY1VF+gAFcdpfw68PaVqUeo28s5eNt0cbAbFPtXa96APn/wCKEgfxXdDOQlnbLj0O05rt/hd4ihvNNGizELdWGTDluZo2JPA9q8++IjK3irUyrBhsiGQc8gHiub0/UL7TLuC9spmiuIWDI6nH1U+xoA+rqyNa8O6Fr8aR6larKU/1cgJWRPow5rD8IeOdO8RRJBcMltqaKBJExwkp6ZjJrs8+xoAr2Vnb2FrbWduMQ26LHGPRRReIslreRsMq9vMCP+AmrFMlGY5R6xuPzFAHyrDcyWN+l1FkSW92ZF5x9x84r6V8O65Z6/pttfW7LuZFFxGDlopMcqRXzZq8DW+p6lCwUFLmXhenLZ4rR8M+J9T8NXguLZi8DkC5t2J2SL6/X0oA+mqyZfDvh+bUIdUewi+3QnKTKNpB9cDio9B8SaP4gtY57KdPMK5lt2IEsbAc/LnOK2sn0P6UAFee/FhHbw5FIACqXkIY9xk8V6FXFfEyDzvCt4Pm/d3MEo2jOdpJ5oA+fD1NfQfw21N9Q8NwLI+ZbSVrcgnkIuNtfPnvXqvwfuJftet2xLeUtvHKP7oYuBQB7HXlnxevGjstJsweLh3kI/3MV6n2H0rxr4wyKbvQYhndHBOT6fMy9KALfw7txDos79DczByTx0GKkvPHmjWmpGxKO0cchinnAPyMDg4FXvB0bL4c0otjbJETkemcc1yWofD7WbnU7maGWD7FcTmVnZh5iKxycLX5dGOCxOYYiWOlZXdtfke43UhSh7JGd4/tGXVotQjXNnfW8TQSdmIGTW74P8XaXHp8Om6hKYp4C3lOR8sinnBPtXWX2hafqWl22mXY3JbwJFFKPvxsoA3LXn958NtaWVhYTQzQ/wALTOI3/lXZh8bgMfgo4PGS5XDZ+mzv6boynTq0antIK9zr9V8ZaBZWs5huvNunicW6oMgPjAYkelchfatN4o8MOsmH1XT7nzpVXrJbgcyY9qLP4bay0g+3zwwxZGTCwkbH413ek+GND0hT9nhDyvC1vLNJ96WNuoYdOaxlUyvLYp4eTqVE00/TpfsylGvXfvqyPMvBevW2iahL9ryLW7QRs458s5+9Xo194w8N2ltJKt15rmNhCiDJYkcZxXO6x8Olmlkm0mZU3sW8iXhEz2U1jJ8N/E5dRI1oqZ5YS7jj2GK7cSsnzKosVUq8r6rbb+uhlB4iivZqNznrb7Xq2s27Kpea5vEfAHRd4OfwFX/F6CLxDdx8sEMQyeN3AzXpPh3wlYaCGnz59+y8SuB+6Polc1q3gbxHqeoXl809vmaQumW6DsK66OeYSpjb8yjThGyb6ttbeSsRLDVI09rts5jxDop0n+yriEN5F7aRzhxn5ZTyVzUuhaL9tsNd1OdG8qzg3Qsf45s8ivRNS8OXOpeG7TS52Q31nGvkOD8pkHHJ9KfLoF5D4aj0XTjHHLJGPtLMcAyH7xBrl/1gjLDxpc/v81m/7qd7/NaGn1VqblbS34nnXgbJ8T6Vx3mP/jhr2v1+p/nXmmk+B/EmlahZ30c9uGgfJw38J4NejzTQ28bTXEiRRquWeQgLnvya8biTEUcXio1MPJSVrad7v/M6MFGVODU1YezpGGkchUjBZ2PRVA6mvDtSY654lkig+YXF55EWOdy7sZrofFnjUXkcumaSWELEpPP0aQdCi47Gt74a+DZInj17U4SrDmwikBDKf+epB/SvpOGcpqYRSxFdWclZLy8zjxuIVR8keh6nZxGC0soCMGG3hjI9NiBanoor7I84KKKKACvBviV4dfStW/tKCPbZX7BgV/huBy2frXvNZ+saTYa1YXNhexh4plIBwN0bdmQ+tAHI/D3xfBrFjHpt5KF1O0XYocgfaIhwpTPcd677NfOOv+FvEXhK889DKbdJM219b7gPUA45B9a3tJ+K+t2irFqUEd2iIFVkASQ44yxNAHt/FMmmigjklmdY4o1LO7kBVA7kmvHb34vX0kTLY2CQzEYDzEOoPriuNm1Txl4jmkXzr24MpJaKAusXPbaDigDT8e+LW8RX/wBnt8DTbGR1g9ZX6Fz7elcXVq80/ULCQxXltNBJjO2RT/OqtABRRRQAUUUUAFdX4C1i30bxFZz3B2w3Cm0d+gQSEDc3tXKUUAfW6ujKrKQUYBkZTkMpGQQRTsivnTRviD4q0W3W1imjnt1PyrcrvZR6KxOcVoXPxU8XTxNHH9lh3AhnWMFsH+6aAPYdf8SaP4etnnvp0EuwtDbqR5sp/wBkV8/eJvE2peJbz7TdEJFHlbeFM7UTPcetZV5fX1/M095cSzynPzSsWxnnC5qtQAUqsykMpIZSCpHBBHORSUUAey+EfiXZyQ2+n663lTxgRx3XSJkUYHme9ek2mo6bfKHs7yCdT0MTqc18o1Ygvb62/wCPe6uIu/7qR0/9BNAH1jz6UHqPxr568LeNtZ03U7IX19NLYySLFP57s+xGOC/PpXtuqa5p9jo91qouImhFuZLdlYHzSV4CigD568V3C3Ov6xIuMC4kj46ZUkGsOprqY3FxdTnrPPJMf+BsWqGgCSGaaCSOaGR45YyGR0JVlI7giung8f8AjGCJI/t7SbRjdJksfqc1ylFAHrngTx1quoax/Z+qzCRbtNltjtKOe9eucHI+oNfJcE89tNDPBI0c0Th43Q4ZWHcEV20nxQ8YPafZd9srGPy2mEfzkYxke9AGP40hSDxNrkSFCqz5BTpyAa52nyyyzSSSyuzySMWd3OWYnuSaZQBYtL2+sJfOs7ma3lxjfC5VsemRWs3jDxe6LGdZvQB3WQhj9SKwaKAPoL4c+IZNa0bybqZ5r+xYrcPIcsysTtJrW8ZLbN4c1f7RKsSCFiGY4BfHC/jXzzpGtatolz9q064aKQjDjqjj0Zata14p8Q68EXULstGvSKP5IyR3ZQaAMT0r2D4QWoWLV7va2ZNsO7+H5SDgV48Ote9fCmExeGmkIIaa+mPPdRgDFAHf9h+FeDfFS683xAkGSfs8IGD0G7B4r3g4HXoOfyr5s8cXS3nifWplOV81UXnOAqhcCgCto/ifW9GZBbzl4FGBBMSYgPYV3um/ETSLgIl/DJBMerjHlV5OAScc/hzWzpfhjxJrGDY6fNJGcZkI2ooJxnLV42NyTB4181SNpd1ozpp4mpT0TPabXWNGvQptb+3lLY+VWGQfQ5q/tPXHHrkV52nwo8SQ26zxapAlwVDGFBIrD23A4zVF/DvxR0p90KXlxGOdyyF1GPZmr5evwfK96NX71/kdscx/mR6jwKMivLG8R/EjTt6T2pGGAbzLfcR7ZBpF+IfiNHxPbR/LwyiIg5/GvLnwrj47Wfz/AOAbrH0meqcUfLXmP/CyNS/58x+VJ/wsjUv+fMflWP8Aq1mP8q+9F/XaXc9PyKOD2ryiT4i+IyW8mCJQfuboicUz/hKfiDqJVYomJKkDyrcpkGt4cK4+W9l8/wDgEPH0ket4IBJACgZJJGAKzbrXNBswftGoW6sM/JuG447DFearofxP1Mg+RqAjY8sZCic/Rq17L4U+ILwrLqF/FCMjcrh3kI7gHNepQ4P1vXq/cv8AMwlmP8qJ9T+I2nwhk0y3eSZSRvm/1R+neuWeTxr4xnCxRXEkMjAFIQwtk56ntXqulfDLwrYNFNOkt1OnJ8x8xE/7hrs7e1s7RBHbW8MKf3YUVB+SivqcFk2DwXvUoa93qzhqYipU0bPPvCvwzsNMMV5rBS6vV5WEc26dwSCOSK9GVVUKqgBVACgDAAHGBS0V65zhRRRQAUUUUAFFFFAEcsME6NHNEkkbdVkUMv5GuTvfhz4MvJHmNm8UjncxikZVJP8As9K7CigDiYPhj4LikDvbTSAYwryvjI7nBrq7PTNM0+JIbS1hiRem1Fz+J61booAq3WnadexvHdWsEquMHeilvwOM1xep/C7wtdq5shJZytk7lZnUE9wpNd9RQB4Xqnwp8RWuTp8sd6o+kTEfRjXIah4d8Q6YxW80+dMHBKoXA/Fc19R0jIjZDKrA/wB4A/zoA+SWR0OGVlP+2CP502vqC98LeF9RybvTLaQk5ztK8+vy4rmb74WeFrot9nMtpnOPK+bH/fRoA8For1i8+EFwm42WpGX+6JlVD+OK5+5+GPjS3DMILaVAeDHMCxH+7igDh6K3Lrwp4otC3m6ZckKMkxIz8e2BWbJp+pRZ8yyu0x13wyL/ADFAFWinMjoSHVlI6hgRj86bj3FABRRRQAUUYPoaMH0oAKlae4ZBG00xjHRGdig+ik4qLB9KMH0oAKKMH0owfSgAoowfQ0YPpQAUUUfjQAUUY96kSCeT/Vwyvzj5EZufTgUAR0Vej0jWZiBFp16xJ2jEEmM+5xWva+B/F93jy9PdcnH735P50Ac1W1oXhrW/EUssenQ7lhGZZGIVEz0GTVzW/BPiTQLRL3UI4RCzBD5MgfaT0zivRPhDJA2laxEvEq3UbSepBXgigDy3WvDmuaBNFBqNsUaYZhZDvR+cYDDjPtX0H4SsBp/h/SICMM1vHM4xjDOoJFaN/pem6mkEd9bpMkEyzxhxnEi9DmriqqhVUAKoAUDoAO1AFa/uIrSzvLmRsJFBIxJ9dvFfN2i6bJ4j8QpZszf6VPLJIw5OwHcTXsPxN1aOw8PyWgJE+psIoiOoCEM1ch8JNKE2oX+qsDizQwRnsTKOaAPQtK8DeE9JKSQ2SyTALuknJkyR3w3FdKkcUQ2xxoi+iKFH5CnUUAFFFFADGhhf78UbZ67kU/zqM2WntndaWxz1zDGc/pU9FAGedF0Mkn+z7XJ5P7pP8KP7F0P/AKB9r/36WtCigCsmn6ZGqollahV6DyY/8KlW3tlxshhX/djUfyFSUUAAAHA6e1FFFABRRRQAUUUUAFFFFABRRRQAUUUUAFFFFABRRRQAUUUUAFFFFABRRRQAUUUUAFQzWtpOCJoIpM9d6g5qaigDKm8OeGrjeZ9KsnLY3bogc4qjL4H8FykH+x7VMDGI12g/hXR0UAcXL8NvB8glAt2TfnBT+D/dqg/wm8Ksm1Z71D2ZWXP6ivQ6KAPNv+FQeHP+ghqP/kL/AOJqr/wp/Tef+JncdTj5V6flXqdFAHln/Cn9N/6Cdx/3yv8AhR/wp/Tf+gncf98r/hXqdFAHln/Cn9N/6Cdx/wB8r/hR/wAKf03/AKCdx/3yv+Fep0UAeYRfCDRgT52pXhXHHliMHP4ip1+EPhoMpN9qDAHJBMQB9uBXpFFAHAp8K/CSSI5a5YKc7GYFT7GtCH4eeDYixNism7tJyB9K66igDBh8HeDoQgTRrIlOjNHlvxNXodF0O3/1On2sfzBvljA5HetCigBFREGEVVGc4UADP4UtFFAGJ4q0lda0LUrEnazRGWM4yd0XzgD64rxPwFrJ0LxDDHcu0dtcF7WdG4AkJCqzD2r6HPPFeM/EDwNeQXU+t6TE0sM7+ZcwRD5oX/voB2oA9lDLgEEEEZBHIIPORTZJI40eR3VI0Us7sQFUDkkk1896Z8Q/GGk2y2aTQypH8q/bI2eRcdsk5qvrHjXxZ4hWO2mn2I3yGGxVoxLnswB5oAseO/EX/CQ600dq7PY2rC3tAf4pD8rMPqa9i8E6KdE0Gxt5UAuZV865x13NyBXC+BPh9dLPb6xrcPlrEd9taSj5i3Z3Hp6V6/0oAKKKKACiiigAooooAKKKKACiiigAooooAKKKKACiiigAooooAKKKKACiiigAooooAKKKKACiiigAooooAKKKKACiiigAooooAKKKKACiiigAooooAKKKKACiiigAooooAKKKKACiiigAooooAKCAQQQCCMEHkEe9FFAGPdeGfDd7J5s+nW5fuVRVz9QtSWfh/QLDJtdPtlYnO5o1Yj6EiiigDUooooAKKKKACiiigAooooAKKKKACiiigAooooAKKKKACiiigAooooA//9k=;" parent="1" vertex="1">
          <mxGeometry x="30" y="240" width="134.15" height="120" as="geometry" />
        </mxCell>
        <mxCell id="U6AgGRZ9KWCwCMbpHuop-3" style="edgeStyle=orthogonalEdgeStyle;rounded=0;orthogonalLoop=1;jettySize=auto;html=1;" parent="1" source="U6AgGRZ9KWCwCMbpHuop-2" target="U6AgGRZ9KWCwCMbpHuop-1" edge="1">
          <mxGeometry relative="1" as="geometry" />
        </mxCell>
        <mxCell id="U6AgGRZ9KWCwCMbpHuop-2" value="Client" style="sketch=0;outlineConnect=0;fontColor=#232F3E;gradientColor=none;strokeColor=#232F3E;fillColor=#ffffff;dashed=0;verticalLabelPosition=bottom;verticalAlign=top;align=center;html=1;fontSize=12;fontStyle=0;aspect=fixed;shape=mxgraph.aws4.resourceIcon;resIcon=mxgraph.aws4.client;" parent="1" vertex="1">
          <mxGeometry x="-170" y="240" width="120" height="120" as="geometry" />
        </mxCell>
        <mxCell id="_tegSY7qzVE_F2MQMRTn-3" style="edgeStyle=orthogonalEdgeStyle;rounded=0;orthogonalLoop=1;jettySize=auto;html=1;" parent="1" source="U6AgGRZ9KWCwCMbpHuop-4" target="_tegSY7qzVE_F2MQMRTn-2" edge="1">
          <mxGeometry relative="1" as="geometry" />
        </mxCell>
        <mxCell id="U6AgGRZ9KWCwCMbpHuop-4" value="" style="outlineConnect=0;dashed=0;verticalLabelPosition=bottom;verticalAlign=top;align=center;html=1;shape=mxgraph.aws3.route_53;fillColor=#F58536;gradientColor=none;" parent="1" vertex="1">
          <mxGeometry x="235" y="240" width="120" height="120" as="geometry" />
        </mxCell>
        <mxCell id="U6AgGRZ9KWCwCMbpHuop-6" value="" style="sketch=0;points=[[0,0,0],[0.25,0,0],[0.5,0,0],[0.75,0,0],[1,0,0],[0,1,0],[0.25,1,0],[0.5,1,0],[0.75,1,0],[1,1,0],[0,0.25,0],[0,0.5,0],[0,0.75,0],[1,0.25,0],[1,0.5,0],[1,0.75,0]];outlineConnect=0;fontColor=#232F3E;fillColor=#ED7100;strokeColor=#ffffff;dashed=0;verticalLabelPosition=bottom;verticalAlign=top;align=center;html=1;fontSize=12;fontStyle=0;aspect=fixed;shape=mxgraph.aws4.resourceIcon;resIcon=mxgraph.aws4.ec2;" parent="1" vertex="1">
          <mxGeometry x="770" y="240" width="120" height="120" as="geometry" />
        </mxCell>
        <mxCell id="U6AgGRZ9KWCwCMbpHuop-8" value="Route 53" style="text;html=1;align=center;verticalAlign=middle;resizable=0;points=[];autosize=1;strokeColor=none;fillColor=none;" parent="1" vertex="1">
          <mxGeometry x="260" y="360" width="70" height="30" as="geometry" />
        </mxCell>
        <mxCell id="U6AgGRZ9KWCwCMbpHuop-9" value="EC2" style="text;html=1;align=center;verticalAlign=middle;resizable=0;points=[];autosize=1;strokeColor=none;fillColor=none;" parent="1" vertex="1">
          <mxGeometry x="820" y="360" width="50" height="30" as="geometry" />
        </mxCell>
        <mxCell id="_tegSY7qzVE_F2MQMRTn-4" style="edgeStyle=orthogonalEdgeStyle;rounded=0;orthogonalLoop=1;jettySize=auto;html=1;" parent="1" source="_tegSY7qzVE_F2MQMRTn-2" target="U6AgGRZ9KWCwCMbpHuop-6" edge="1">
          <mxGeometry relative="1" as="geometry" />
        </mxCell>
        <mxCell id="_tegSY7qzVE_F2MQMRTn-2" value="" style="outlineConnect=0;dashed=0;verticalLabelPosition=bottom;verticalAlign=top;align=center;html=1;shape=mxgraph.aws3.application_load_balancer;fillColor=#F58534;gradientColor=none;" parent="1" vertex="1">
          <mxGeometry x="510" y="240" width="120" height="120" as="geometry" />
        </mxCell>
        <mxCell id="_tegSY7qzVE_F2MQMRTn-5" value="" style="sketch=0;points=[[0,0,0],[0.25,0,0],[0.5,0,0],[0.75,0,0],[1,0,0],[0,1,0],[0.25,1,0],[0.5,1,0],[0.75,1,0],[1,1,0],[0,0.25,0],[0,0.5,0],[0,0.75,0],[1,0.25,0],[1,0.5,0],[1,0.75,0]];outlineConnect=0;fontColor=#232F3E;fillColor=#DD344C;strokeColor=#ffffff;dashed=0;verticalLabelPosition=bottom;verticalAlign=top;align=center;html=1;fontSize=12;fontStyle=0;aspect=fixed;shape=mxgraph.aws4.resourceIcon;resIcon=mxgraph.aws4.certificate_manager_3;" parent="1" vertex="1">
          <mxGeometry x="256" y="30" width="78" height="78" as="geometry" />
        </mxCell>
        <mxCell id="_tegSY7qzVE_F2MQMRTn-6" style="edgeStyle=orthogonalEdgeStyle;rounded=0;orthogonalLoop=1;jettySize=auto;html=1;entryX=0.5;entryY=0;entryDx=0;entryDy=0;entryPerimeter=0;" parent="1" source="_tegSY7qzVE_F2MQMRTn-5" target="U6AgGRZ9KWCwCMbpHuop-4" edge="1">
          <mxGeometry relative="1" as="geometry" />
        </mxCell>
        <mxCell id="_tegSY7qzVE_F2MQMRTn-7" style="edgeStyle=orthogonalEdgeStyle;rounded=0;orthogonalLoop=1;jettySize=auto;html=1;entryX=0.5;entryY=0;entryDx=0;entryDy=0;entryPerimeter=0;" parent="1" source="_tegSY7qzVE_F2MQMRTn-5" target="_tegSY7qzVE_F2MQMRTn-2" edge="1">
          <mxGeometry relative="1" as="geometry">
            <Array as="points">
              <mxPoint x="570" y="70" />
            </Array>
          </mxGeometry>
        </mxCell>
        <mxCell id="_tegSY7qzVE_F2MQMRTn-8" value="&lt;font style=&quot;font-size: 18px;&quot;&gt;&lt;b&gt;GoDaddy&lt;/b&gt;&lt;/font&gt;" style="whiteSpace=wrap;html=1;fillColor=#d5e8d4;strokeColor=#82b366;" parent="1" vertex="1">
          <mxGeometry x="-140" y="430" width="120" height="30" as="geometry" />
        </mxCell>
        <mxCell id="_tegSY7qzVE_F2MQMRTn-9" value="Add &lt;b&gt;NS &lt;/b&gt;in Goddy for&lt;div&gt;&lt;b&gt;denmarklenses.com&lt;/b&gt;&lt;/div&gt;" style="whiteSpace=wrap;html=1;fillColor=#d5e8d4;strokeColor=#82b366;" parent="1" vertex="1">
          <mxGeometry x="-140" y="460" width="120" height="50" as="geometry" />
        </mxCell>
        <mxCell id="_tegSY7qzVE_F2MQMRTn-12" value="&lt;span style=&quot;text-wrap: nowrap;&quot;&gt;&lt;font style=&quot;font-size: 18px;&quot;&gt;&lt;b&gt;Route 53&lt;/b&gt;&lt;/font&gt;&lt;/span&gt;" style="whiteSpace=wrap;html=1;fillColor=#d5e8d4;strokeColor=#82b366;" parent="1" vertex="1">
          <mxGeometry x="266.65" y="430" width="120" height="30" as="geometry" />
        </mxCell>
        <mxCell id="_tegSY7qzVE_F2MQMRTn-13" value="Pub HZ --&amp;gt; denmarklenses.com&lt;div&gt;&lt;br&gt;&lt;/div&gt;&lt;div&gt;NS recod&lt;/div&gt;&lt;div&gt;SOA Record&lt;/div&gt;&lt;div&gt;Cname Record --&amp;gt; denmarklenses.com&lt;/div&gt;&lt;div&gt;Cname Record --&amp;gt; www.denmarklenses.com&lt;br&gt;&lt;/div&gt;&lt;div&gt;A Record --&amp;gt;&amp;nbsp;&lt;span style=&quot;background-color: initial;&quot;&gt;denmarklenses.com = ALB endpoint&lt;/span&gt;&lt;/div&gt;&lt;div&gt;A Record --&amp;gt; www.&lt;span style=&quot;background-color: initial;&quot;&gt;denmarklenses.com = ALB endpoint&lt;/span&gt;&lt;span style=&quot;background-color: initial;&quot;&gt;&lt;br&gt;&lt;/span&gt;&lt;/div&gt;" style="whiteSpace=wrap;html=1;align=left;fillColor=#d5e8d4;strokeColor=#82b366;" parent="1" vertex="1">
          <mxGeometry x="164.15" y="460" width="325" height="145" as="geometry" />
        </mxCell>
        <mxCell id="_tegSY7qzVE_F2MQMRTn-14" value="&lt;span style=&quot;text-wrap: nowrap;&quot;&gt;&lt;b&gt;&lt;font style=&quot;font-size: 18px;&quot;&gt;Certificate Manager&lt;/font&gt;&lt;/b&gt;&lt;/span&gt;" style="whiteSpace=wrap;html=1;fillColor=#d5e8d4;strokeColor=#82b366;" parent="1" vertex="1">
          <mxGeometry x="-155" y="550" width="180" height="35" as="geometry" />
        </mxCell>
        <mxCell id="_tegSY7qzVE_F2MQMRTn-15" value="&lt;div style=&quot;text-align: left;&quot;&gt;&lt;span style=&quot;background-color: initial;&quot;&gt;Request new certificate --&amp;gt; denmarklenses.com, www.&lt;/span&gt;&lt;span style=&quot;background-color: initial;&quot;&gt;denmarklenses.com&lt;/span&gt;&lt;/div&gt;&lt;div style=&quot;text-align: left;&quot;&gt;&lt;span style=&quot;&quot;&gt;Add certificate in PUB HZ --&amp;gt; cname record&lt;/span&gt;&lt;/div&gt;&lt;div style=&quot;text-align: left;&quot;&gt;&lt;span style=&quot;&quot;&gt;Add certificate in ALB = HTTPS&lt;/span&gt;&lt;/div&gt;" style="whiteSpace=wrap;html=1;fillColor=#d5e8d4;strokeColor=#82b366;" parent="1" vertex="1">
          <mxGeometry x="-270" y="585" width="410" height="65" as="geometry" />
        </mxCell>
        <mxCell id="_tegSY7qzVE_F2MQMRTn-16" value="Certificate Manager" style="text;html=1;align=center;verticalAlign=middle;resizable=0;points=[];autosize=1;strokeColor=none;fillColor=none;" parent="1" vertex="1">
          <mxGeometry x="230" width="130" height="30" as="geometry" />
        </mxCell>
        <mxCell id="_tegSY7qzVE_F2MQMRTn-17" value="ALB" style="text;html=1;align=center;verticalAlign=middle;resizable=0;points=[];autosize=1;strokeColor=none;fillColor=none;" parent="1" vertex="1">
          <mxGeometry x="545" y="360" width="50" height="30" as="geometry" />
        </mxCell>
        <mxCell id="_tegSY7qzVE_F2MQMRTn-18" value="&lt;span style=&quot;text-wrap: nowrap;&quot;&gt;&lt;font style=&quot;font-size: 18px;&quot;&gt;&lt;b&gt;ALB&lt;/b&gt;&lt;/font&gt;&lt;/span&gt;" style="whiteSpace=wrap;html=1;fillColor=#d5e8d4;strokeColor=#82b366;" parent="1" vertex="1">
          <mxGeometry x="612.5" y="430" width="120" height="30" as="geometry" />
        </mxCell>
        <mxCell id="_tegSY7qzVE_F2MQMRTn-19" value="&lt;div&gt;&lt;span style=&quot;background-color: initial;&quot;&gt;create new ALB =&amp;nbsp;&lt;/span&gt;&lt;a style=&quot;text-wrap: nowrap; background-color: rgb(241, 250, 255); -webkit-font-smoothing: auto; border-collapse: initial; border-spacing: 0px; box-sizing: border-box; caption-side: top; cursor: auto; direction: inherit; display: inline; empty-cells: show; font-family: &amp;quot;Amazon Ember&amp;quot;, &amp;quot;Helvetica Neue&amp;quot;, Roboto, Arial, sans-serif; font-size: 14px; font-stretch: normal; font-variant-numeric: normal; font-variant-east-asian: normal; font-variant-alternates: normal; font-variant-position: normal; hyphens: none; line-height: var(--line-height-body-m-2zx78l,22px); list-style: outside none disc; tab-size: 8; text-decoration-thickness: 1px; text-shadow: none; text-underline-offset: 0.25em; transition-duration: var(--motion-duration-refresh-only-medium-0rwzu1,165ms); transition-property: color, text-decoration, -webkit-text-decoration; visibility: visible;&quot; href=&quot;https://ap-south-1.console.aws.amazon.com/ec2/home?region=ap-south-1#LoadBalancer:loadBalancerArn=arn:aws:elasticloadbalancing:ap-south-1:656418993693:loadbalancer/app/denmarklenses-ALB/eb9efe4ce6147c29;tab=listeners&quot; data-analytics-funnel-value=&quot;link1311-1724303501303-9503&quot; aria-labelledby=&quot;&quot; class=&quot;awsui_link_4c84z_eu8v7_97 awsui_variant-primary_4c84z_eu8v7_201 awsui_font-size-body-m_4c84z_eu8v7_430&quot; id=&quot;link-self1312-1724303501303-3608&quot;&gt;denmarklenses-ALB&lt;/a&gt;&lt;/div&gt;&lt;div&gt;&amp;nbsp;Add listener = HTTPS , ACM certificate&lt;/div&gt;" style="whiteSpace=wrap;html=1;align=left;fillColor=#d5e8d4;strokeColor=#82b366;" parent="1" vertex="1">
          <mxGeometry x="510" y="460" width="325" height="60" as="geometry" />
        </mxCell>
        <mxCell id="_tegSY7qzVE_F2MQMRTn-21" value="&lt;span style=&quot;text-wrap: nowrap;&quot;&gt;&lt;font style=&quot;font-size: 18px;&quot;&gt;&lt;b&gt;TG&lt;/b&gt;&lt;/font&gt;&lt;/span&gt;" style="whiteSpace=wrap;html=1;fillColor=#d5e8d4;strokeColor=#82b366;" parent="1" vertex="1">
          <mxGeometry x="612.5" y="530" width="120" height="30" as="geometry" />
        </mxCell>
        <mxCell id="_tegSY7qzVE_F2MQMRTn-22" value="&lt;div&gt;&lt;span style=&quot;background-color: initial;&quot;&gt;create new TG =&amp;nbsp;&lt;/span&gt;&lt;a style=&quot;background-color: rgb(241, 250, 255); -webkit-font-smoothing: auto; border-collapse: initial; border-spacing: 0px; box-sizing: border-box; caption-side: top; cursor: auto; direction: inherit; display: inline; empty-cells: show; font-family: &amp;quot;Amazon Ember&amp;quot;, &amp;quot;Helvetica Neue&amp;quot;, Roboto, Arial, sans-serif; font-size: 14px; font-stretch: normal; font-variant-numeric: normal; font-variant-east-asian: normal; font-variant-alternates: normal; font-variant-position: normal; hyphens: none; line-height: var(--line-height-body-m-2zx78l,22px); list-style: outside none disc; tab-size: 8; text-decoration-thickness: 1px; text-shadow: none; text-underline-offset: 0.25em; transition-duration: var(--motion-duration-refresh-only-medium-0rwzu1,165ms); transition-property: color, text-decoration, -webkit-text-decoration; visibility: visible;&quot; href=&quot;https://ap-south-1.console.aws.amazon.com/ec2/home?region=ap-south-1#TargetGroup:targetGroupArn=arn:aws:elasticloadbalancing:ap-south-1:656418993693:targetgroup/denmarklenses/579e8ea2f3eb2f68&quot; target=&quot;_top&quot; data-analytics-funnel-value=&quot;link1391-1724304421241-3399&quot; aria-labelledby=&quot;&quot; class=&quot;awsui_link_4c84z_eu8v7_97 module-Link_ZQEou awsui_variant-primary_4c84z_eu8v7_201 awsui_font-size-body-m_4c84z_eu8v7_430&quot; id=&quot;link-self1392-1724304421241-9242&quot;&gt;denmarklenses&lt;/a&gt;&lt;/div&gt;&lt;div&gt;Add targets = EC2 instance&lt;/div&gt;" style="whiteSpace=wrap;html=1;align=left;fillColor=#d5e8d4;strokeColor=#82b366;" parent="1" vertex="1">
          <mxGeometry x="510" y="560" width="325" height="60" as="geometry" />
        </mxCell>
        <mxCell id="_tegSY7qzVE_F2MQMRTn-23" value="&lt;span style=&quot;text-wrap: nowrap;&quot;&gt;&lt;font style=&quot;font-size: 18px;&quot;&gt;&lt;b&gt;EC2&lt;/b&gt;&lt;/font&gt;&lt;/span&gt;" style="whiteSpace=wrap;html=1;fillColor=#d5e8d4;strokeColor=#82b366;" parent="1" vertex="1">
          <mxGeometry x="972.5" y="420" width="120" height="30" as="geometry" />
        </mxCell>
        <mxCell id="_tegSY7qzVE_F2MQMRTn-24" value="&lt;div&gt;&lt;b&gt;&lt;font style=&quot;font-size: 18px;&quot;&gt;Create new instance :--&amp;gt;&lt;/font&gt;&lt;/b&gt;&lt;/div&gt;&lt;div&gt;&lt;br&gt;&lt;/div&gt;&lt;div&gt;&lt;b&gt;Name = &lt;/b&gt;denmark-lesnes&lt;/div&gt;&lt;div&gt;&lt;b&gt;AMI = &lt;/b&gt;Amazon Linux&lt;/div&gt;&lt;div&gt;&lt;b&gt;Key-pair =&amp;nbsp;&lt;/b&gt;&lt;span style=&quot;background-color: initial;&quot;&gt;my pc vicky222&lt;/span&gt;&lt;/div&gt;&lt;div&gt;&lt;span style=&quot;background-color: initial;&quot;&gt;&lt;b&gt;VPC =&lt;/b&gt; default&lt;/span&gt;&lt;/div&gt;&lt;div&gt;&lt;span style=&quot;background-color: initial;&quot;&gt;&lt;b&gt;SG =&lt;/b&gt;&amp;nbsp;&lt;/span&gt;&lt;span style=&quot;background-color: initial;&quot;&gt;denmark-lesnes-SG, b&lt;/span&gt;&lt;span style=&quot;background-color: initial;&quot;&gt;astion-server-SG&lt;/span&gt;&lt;/div&gt;&lt;div&gt;&lt;span style=&quot;background-color: initial;&quot;&gt;&lt;br&gt;&lt;/span&gt;&lt;/div&gt;&lt;div&gt;&lt;b&gt;User data&lt;/b&gt;:--&amp;gt;&lt;/div&gt;&lt;div&gt;&lt;span style=&quot;background-color: initial;&quot;&gt;sudo yum update -y&lt;/span&gt;&lt;br&gt;&lt;/div&gt;&lt;div&gt;sudo yum install httpd -y&lt;/div&gt;" style="whiteSpace=wrap;html=1;align=left;fillColor=#d5e8d4;strokeColor=#82b366;" parent="1" vertex="1">
          <mxGeometry x="871" y="450" width="349" height="190" as="geometry" />
        </mxCell>
        <mxCell id="_tegSY7qzVE_F2MQMRTn-30" value="" style="whiteSpace=wrap;html=1;" parent="1" vertex="1">
          <mxGeometry x="280" y="750" width="1080" height="870" as="geometry" />
        </mxCell>
        <mxCell id="_tegSY7qzVE_F2MQMRTn-31" value="&lt;font style=&quot;font-size: 36px;&quot;&gt;Security Groups&lt;/font&gt;" style="text;html=1;align=center;verticalAlign=middle;resizable=0;points=[];autosize=1;strokeColor=none;fillColor=none;" parent="1" vertex="1">
          <mxGeometry x="685" y="770" width="280" height="60" as="geometry" />
        </mxCell>
        <mxCell id="_tegSY7qzVE_F2MQMRTn-32" style="edgeStyle=orthogonalEdgeStyle;rounded=0;orthogonalLoop=1;jettySize=auto;html=1;" parent="1" source="_tegSY7qzVE_F2MQMRTn-33" target="_tegSY7qzVE_F2MQMRTn-36" edge="1">
          <mxGeometry relative="1" as="geometry" />
        </mxCell>
        <mxCell id="_tegSY7qzVE_F2MQMRTn-33" value="&lt;font style=&quot;font-size: 18px;&quot;&gt;Allows SSH from devices&lt;/font&gt;" style="rounded=1;whiteSpace=wrap;html=1;" parent="1" vertex="1">
          <mxGeometry x="720" y="900" width="210" height="60" as="geometry" />
        </mxCell>
        <mxCell id="_tegSY7qzVE_F2MQMRTn-34" style="edgeStyle=orthogonalEdgeStyle;rounded=0;orthogonalLoop=1;jettySize=auto;html=1;entryX=1;entryY=0.5;entryDx=0;entryDy=0;" parent="1" source="_tegSY7qzVE_F2MQMRTn-36" target="_tegSY7qzVE_F2MQMRTn-45" edge="1">
          <mxGeometry relative="1" as="geometry" />
        </mxCell>
        <mxCell id="_tegSY7qzVE_F2MQMRTn-36" value="&lt;font style=&quot;font-size: 18px;&quot;&gt;bastion-server-sg&lt;/font&gt;" style="rounded=1;whiteSpace=wrap;html=1;fillColor=#b0e3e6;strokeColor=#0e8088;" parent="1" vertex="1">
          <mxGeometry x="720" y="1070" width="210" height="60" as="geometry" />
        </mxCell>
        <mxCell id="_tegSY7qzVE_F2MQMRTn-37" style="edgeStyle=orthogonalEdgeStyle;rounded=0;orthogonalLoop=1;jettySize=auto;html=1;entryX=0.5;entryY=0;entryDx=0;entryDy=0;" parent="1" source="_tegSY7qzVE_F2MQMRTn-38" target="_tegSY7qzVE_F2MQMRTn-42" edge="1">
          <mxGeometry relative="1" as="geometry" />
        </mxCell>
        <mxCell id="_tegSY7qzVE_F2MQMRTn-38" value="&lt;font style=&quot;font-size: 18px;&quot;&gt;Allows traffic from internet anywhere&lt;/font&gt;" style="rounded=1;whiteSpace=wrap;html=1;" parent="1" vertex="1">
          <mxGeometry x="300" y="900" width="320" height="60" as="geometry" />
        </mxCell>
        <mxCell id="_tegSY7qzVE_F2MQMRTn-41" style="edgeStyle=orthogonalEdgeStyle;rounded=0;orthogonalLoop=1;jettySize=auto;html=1;entryX=0.5;entryY=0;entryDx=0;entryDy=0;" parent="1" source="_tegSY7qzVE_F2MQMRTn-42" target="_tegSY7qzVE_F2MQMRTn-45" edge="1">
          <mxGeometry relative="1" as="geometry" />
        </mxCell>
        <mxCell id="_tegSY7qzVE_F2MQMRTn-42" value="&lt;div&gt;&lt;span style=&quot;font-size: 18px;&quot;&gt;denmarklenses-ALB-SG&lt;/span&gt;&lt;/div&gt;" style="rounded=1;whiteSpace=wrap;html=1;fillColor=#B0E3E6;strokeColor=#6c8ebf;" parent="1" vertex="1">
          <mxGeometry x="355" y="1200" width="210" height="60" as="geometry" />
        </mxCell>
        <mxCell id="_tegSY7qzVE_F2MQMRTn-45" value="&lt;div&gt;&lt;span style=&quot;font-size: 18px;&quot;&gt;denmarklenses-SG&lt;/span&gt;&lt;/div&gt;" style="rounded=1;whiteSpace=wrap;html=1;fillColor=#b0e3e6;strokeColor=#0e8088;" parent="1" vertex="1">
          <mxGeometry x="355" y="1390" width="210" height="60" as="geometry" />
        </mxCell>
        <mxCell id="_tegSY7qzVE_F2MQMRTn-48" value="&lt;font style=&quot;font-size: 18px;&quot;&gt;Port 80, 443 all IPV4&lt;/font&gt;" style="text;html=1;align=center;verticalAlign=middle;resizable=0;points=[];autosize=1;strokeColor=none;fillColor=none;" parent="1" vertex="1">
          <mxGeometry x="350" y="1038" width="190" height="40" as="geometry" />
        </mxCell>
        <mxCell id="_tegSY7qzVE_F2MQMRTn-50" value="&lt;font style=&quot;font-size: 18px;&quot;&gt;Port 22 SSH&lt;/font&gt;" style="text;html=1;align=center;verticalAlign=middle;resizable=0;points=[];autosize=1;strokeColor=none;fillColor=none;" parent="1" vertex="1">
          <mxGeometry x="755" y="995" width="120" height="40" as="geometry" />
        </mxCell>
        <mxCell id="_tegSY7qzVE_F2MQMRTn-51" value="&lt;font style=&quot;font-size: 18px;&quot;&gt;Port 80&lt;/font&gt;" style="text;html=1;align=center;verticalAlign=middle;resizable=0;points=[];autosize=1;strokeColor=none;fillColor=none;" parent="1" vertex="1">
          <mxGeometry x="370" y="1310" width="80" height="40" as="geometry" />
        </mxCell>
        <mxCell id="_tegSY7qzVE_F2MQMRTn-55" value="&lt;font style=&quot;font-size: 24px;&quot;&gt;Security groups are stateful&lt;/font&gt;" style="text;html=1;align=center;verticalAlign=middle;resizable=0;points=[];autosize=1;strokeColor=#36393d;fillColor=#ffcccc;" parent="1" vertex="1">
          <mxGeometry x="334" y="1520" width="320" height="40" as="geometry" />
        </mxCell>
        <mxCell id="_tegSY7qzVE_F2MQMRTn-56" value="" style="image;aspect=fixed;html=1;points=[];align=center;fontSize=12;image=img/lib/azure2/security/Application_Security_Groups.svg;" parent="1" vertex="1">
          <mxGeometry x="610" y="770" width="56.00000000000001" height="68" as="geometry" />
        </mxCell>
      </root>
    </mxGraphModel>
  </diagram>
</mxfile>
